PathFileType	4	(X/Y/Z)	C:/Users/opensim2020/Desktop/walking_exp_matlab/subject06_walking20_straight_04.trc	
DataRate	CameraRate	NumFrames	NumMarkers	Units	OrigDataRate	OrigDataStartFrame	OrigNumFrames	
100.00	100.00	5	43	mm	100.00	2268	126	
Frame#	Time	LFHD			RFHD			LBHD			RBHD			C7			T10			CLAV			STRN			RBAK			LSHO			LUPA			LELB			LFRM			LWRA			LWRB			LFIN			RSHO			RUPA			RELB			RFRM			RWRA			RWRB			RFIN			LASI			RASI			LPSI			RPSI			LTHI			LKNE			LTIB			LANK			LHEE			LTOE			RTHI			RKNE			RTIB			RANK			RHEE			RTOE			*39			*40			*41			*42			
		X1	Y1	Z1	X2	Y2	Z2	X3	Y3	Z3	X4	Y4	Z4	X5	Y5	Z5	X6	Y6	Z6	X7	Y7	Z7	X8	Y8	Z8	X9	Y9	Z9	X10	Y10	Z10	X11	Y11	Z11	X12	Y12	Z12	X13	Y13	Z13	X14	Y14	Z14	X15	Y15	Z15	X16	Y16	Z16	X17	Y17	Z17	X18	Y18	Z18	X19	Y19	Z19	X20	Y20	Z20	X21	Y21	Z21	X22	Y22	Z22	X23	Y23	Z23	X24	Y24	Z24	X25	Y25	Z25	X26	Y26	Z26	X27	Y27	Z27	X28	Y28	Z28	X29	Y29	Z29	X30	Y30	Z30	X31	Y31	Z31	X32	Y32	Z32	X33	Y33	Z33	X34	Y34	Z34	X35	Y35	Z35	X36	Y36	Z36	X37	Y37	Z37	X38	Y38	Z38	X39	Y39	Z39	X40	Y40	Z40	X41	Y41	Z41	X42	Y42	Z42	X43	Y43	Z43	

111	1.100	1465.54614	-448.61530	1661.24048	1335.99890	-433.73318	1637.13159	1486.26904	-314.44946	1613.03613	1358.88562	-301.05096	1594.36328	1435.80090	-303.58765	1444.76392	1437.27686	-281.96252	1112.86829	1435.98047	-415.53946	1370.18848	1452.27075	-462.19501	1197.26233	1364.43054	-235.67529	1267.20349	1597.16614	-357.21976	1406.61023	1676.23169	-368.65335	1208.78748	1693.20459	-377.64441	1097.65540	1712.80396	-470.91791	982.67358	1665.01245	-584.02136	929.05267	1702.38391	-541.20026	886.55737	1703.16235	-624.50720	854.01318	1273.86865	-368.45154	1393.89343	1190.19800	-299.78317	1205.05432	1175.55371	-285.56827	1083.82593	1153.35901	-274.63046	964.59802	1174.49097	-305.56033	813.79553	1139.34167	-249.48082	829.50494	1133.09619	-265.63132	746.40308	1555.91174	-459.12970	956.92944	1335.55188	-477.99380	973.56897	1515.27759	-301.94116	974.94397	1348.14917	-322.32983	988.06775	1612.18420	-421.33734	634.71863	1602.66370	-450.58862	474.47076	1591.93652	-262.31747	319.25171	1552.97363	-129.23561	212.22293	1505.38525	-94.59926	232.34630	1550.93005	-189.47581	80.76077	1279.12878	-488.55872	641.57660	1312.32104	-522.07178	522.58081	1316.68835	-485.91611	257.18414	1365.29004	-467.18484	73.48792	1409.65173	-426.02261	50.30067	1373.24023	-621.95135	37.24948	1413.76758	-343.60336	1697.41724									 
112	1.110	1463.83667	-462.41022	1663.68518	1334.45190	-447.31033	1639.11145	1485.10144	-328.30344	1615.59961	1357.85400	-314.69806	1596.41748	1434.79517	-317.07297	1447.36597	1436.04993	-294.95673	1115.40308	1435.39075	-429.12567	1372.44812	1451.53296	-475.28156	1199.45740	1363.19324	-249.14607	1270.00806	1596.45056	-370.76154	1408.99524	1675.27417	-380.15482	1210.77478	1691.91016	-388.19861	1099.24280	1711.90295	-477.80594	980.76746	1664.47681	-588.98560	922.72906	1701.80444	-544.28784	882.04700	1702.63232	-626.07977	845.87079	1273.15125	-382.36264	1396.13477	1188.91040	-315.77386	1206.68994	1173.99902	-303.03448	1085.37366	1152.00000	-295.42810	965.79028	1173.85730	-330.85284	816.19708	1138.27344	-274.45770	830.08087	1131.99475	-293.76996	747.82794	1554.84436	-472.34293	960.02313	1334.76746	-490.61298	975.14050	1513.83545	-314.93912	977.62152	1346.60413	-335.39920	990.05273	1611.42749	-441.28729	638.51831	1601.87732	-475.04776	479.16812	1591.64709	-290.33978	320.39755	1552.78198	-159.83498	209.74936	1504.57922	-124.20537	227.82379	1553.10400	-225.69141	81.67941	1279.48804	-496.54358	642.65784	1312.35571	-526.97894	522.55957	1317.03796	-488.28885	257.36838	1365.51685	-467.51318	73.64890	1410.31079	-426.34973	49.77633	1373.37891	-621.78833	37.38748	1412.16248	-357.28354	1699.68555									 
113	1.120	1462.19360	-476.21191	1665.97546	1332.98462	-460.91098	1640.99426	1483.95288	-342.23486	1618.08850	1356.98572	-328.14120	1598.48071	1434.05225	-330.84787	1449.64697	1434.98413	-307.90198	1117.86963	1434.73193	-442.55630	1374.64246	1450.72656	-488.34402	1201.63562	1362.04065	-262.48425	1272.71216	1595.70251	-384.26608	1411.30774	1674.40784	-391.49106	1212.75928	1690.68982	-398.52280	1100.89844	1710.76526	-483.98660	978.92627	1664.17261	-593.15405	916.29895	1701.27417	-546.63763	877.48975	1702.23132	-626.72961	837.65631	1272.51550	-396.01941	1398.47253	1187.71692	-331.42868	1208.47986	1172.60791	-320.35956	1087.02429	1150.75879	-316.12750	967.30121	1173.34277	-356.30331	819.29401	1137.52405	-299.69199	830.93738	1131.07715	-322.19235	749.79797	1553.64441	-485.77548	963.26501	1333.79089	-503.50629	976.88007	1512.55151	-327.95038	980.37885	1345.40515	-348.35101	992.02661	1610.76758	-460.82016	642.38031	1601.07495	-498.98334	484.04218	1591.26074	-318.49976	320.76755	1552.70520	-191.45506	205.69830	1504.46484	-155.16020	221.99875	1555.25928	-263.22324	81.46069	1279.86792	-504.24341	643.71851	1312.20251	-531.63647	522.61908	1317.40356	-490.42114	257.26447	1365.86243	-467.72519	73.68851	1409.81836	-425.89542	50.50138	1373.46509	-621.59015	37.49890	1410.76648	-370.99716	1701.89795									 
114	1.130	1460.72070	-490.02515	1668.08093	1331.63025	-474.41547	1642.74475	1483.18811	-356.00351	1620.48035	1355.98389	-341.64145	1600.44922	1433.26343	-344.33313	1451.89197	1433.70117	-320.76587	1120.24182	1434.08850	-455.79272	1376.67285	1449.87207	-501.28125	1203.73230	1360.84717	-275.74301	1275.20300	1594.97449	-397.67133	1413.55273	1673.53247	-402.74594	1214.74048	1689.43213	-408.65121	1102.59558	1710.14905	-489.96753	977.14557	1663.88428	-596.72717	909.86493	1700.87476	-548.28296	873.10785	1701.92273	-626.42792	829.46094	1271.85693	-409.46637	1400.82153	1186.54553	-346.72049	1210.40771	1171.41455	-337.44308	1088.84192	1149.72314	-336.81207	969.09863	1173.08350	-381.75613	822.81415	1136.88770	-325.09955	832.33929	1130.31714	-351.01190	752.35889	1552.36230	-499.02625	966.38544	1332.54419	-516.13623	978.67737	1511.64148	-341.05942	983.01630	1344.52795	-361.11517	993.97522	1610.19702	-479.98926	646.36945	1600.35278	-522.38428	488.96640	1590.80957	-346.80710	320.26129	1552.89697	-223.90666	200.38896	1504.16479	-186.99231	214.40054	1557.34265	-301.57950	80.14671	1280.11804	-512.08356	644.66931	1312.03906	-536.06427	522.51514	1317.72815	-492.14990	257.03665	1366.10620	-467.87207	73.72834	1409.92993	-425.74908	50.63604	1373.60876	-621.37097	37.58942	1409.41333	-384.70453	1704.00989									 
115	1.140	1459.22778	-503.82117	1669.93542	1330.23718	-487.71579	1644.30164	1482.37976	-369.68274	1622.70056	1355.22083	-355.00302	1602.38135	1432.53735	-357.50323	1454.03772	1432.58472	-333.69754	1122.41040	1433.33484	-468.92117	1378.56665	1448.99182	-514.27832	1205.72839	1359.70642	-288.94897	1277.50122	1594.19922	-410.96671	1415.60535	1672.62476	-414.13464	1216.67163	1688.22620	-418.65842	1104.25854	1709.17212	-495.24899	975.42584	1663.87415	-599.59998	903.46967	1700.67615	-549.23572	868.89209	1701.72534	-625.25946	821.39520	1271.18970	-422.65381	1403.07324	1185.42529	-361.63705	1212.40161	1170.21240	-354.24487	1090.73669	1148.81970	-357.37143	971.09003	1172.70752	-407.73264	826.87830	1136.57959	-350.58072	833.92639	1129.79980	-380.17090	755.49384	1550.99792	-512.29071	969.36029	1331.31372	-528.53424	980.33252	1511.07410	-354.19824	985.46069	1343.99915	-373.74744	995.72064	1609.66528	-498.81708	650.35944	1599.66321	-545.21466	493.91675	1590.34229	-375.39523	319.01761	1553.08301	-257.38837	193.80045	1504.01880	-219.90475	205.53419	1559.66833	-341.05301	78.32894	1280.24866	-520.19373	645.39240	1311.80359	-540.57098	522.22919	1317.95374	-493.43784	256.94025	1366.26440	-467.94437	73.77402	1409.90247	-425.27740	50.63991	1373.64648	-621.16351	37.61666	1408.19312	-398.42075	1705.95898									 
